<svg xmlns="http://www.w3.org/2000/svg" width="740" height="330" viewBox="0 0 740 330" role="img" aria-labelledby="title desc">
<title id="title">Active Development Languages</title>
<desc id="desc">Weighted authored source-code activity by language over the last 30 days</desc>
<style>
  .title { fill:#e6edf3; font:600 17px -apple-system,BlinkMacSystemFont,"Segoe UI",sans-serif }
  .subtitle,.muted,.meta,.pct { fill:#8b949e; font:12px -apple-system,BlinkMacSystemFont,"Segoe UI",sans-serif }
  .lang { fill:#c9d1d9; font:13px -apple-system,BlinkMacSystemFont,"Segoe UI",sans-serif }
  .metaStrong { fill:#e6edf3; font:600 12px -apple-system,BlinkMacSystemFont,"Segoe UI",sans-serif }
</style>
<rect x="0.5" y="0.5" width="739" height="329" rx="10" fill="#0d1117" stroke="#30363d"/>
<text x="24" y="34" class="title">Active Development · Last 30 Days</text>
<text x="24" y="56" class="subtitle">Authored source changes · generated/vendor/data excluded · reference repositories down-weighted</text>
<text x="24" y="78" class="meta"><tspan class="metaStrong">60</tspan> commits · <tspan class="metaStrong">3</tspan> active repos · <tspan class="metaStrong">10,025</tspan> weighted effective lines</text>
<text x="24" y="107" class="lang">Python</text>
<rect x="180" y="96" width="500" height="12" rx="6" fill="#21262d"/>
<rect x="180" y="96" width="270.5" height="12" rx="6" fill="#3572A5"/>
<text x="704" y="107" text-anchor="end" class="pct">54.1%</text>
<text x="24" y="138" class="lang">HTML</text>
<rect x="180" y="127" width="500" height="12" rx="6" fill="#21262d"/>
<rect x="180" y="127" width="185.7" height="12" rx="6" fill="#e34c26"/>
<text x="704" y="138" text-anchor="end" class="pct">37.1%</text>
<text x="24" y="169" class="lang">Jupyter Notebook</text>
<rect x="180" y="158" width="500" height="12" rx="6" fill="#21262d"/>
<rect x="180" y="158" width="38.7" height="12" rx="6" fill="#DA5B0B"/>
<text x="704" y="169" text-anchor="end" class="pct">7.7%</text>
<text x="24" y="200" class="lang">JavaScript</text>
<rect x="180" y="189" width="500" height="12" rx="6" fill="#21262d"/>
<rect x="180" y="189" width="4.2" height="12" rx="6" fill="#f1e05a"/>
<text x="704" y="200" text-anchor="end" class="pct">0.8%</text>
<text x="24" y="231" class="lang">R</text>
<rect x="180" y="220" width="500" height="12" rx="6" fill="#21262d"/>
<rect x="180" y="220" width="3.0" height="12" rx="6" fill="#198CE7"/>
<text x="704" y="231" text-anchor="end" class="pct">0.2%</text>
</svg>
