<svg xmlns="http://www.w3.org/2000/svg" width="740" height="320" viewBox="0 0 740 320" role="img" aria-labelledby="title desc">
<title id="title">7-Day Code Activity</title>
<desc id="desc">Additions and deletions by day for krischan-ai</desc>
<style>
  .title { fill:#e6edf3; font:600 17px -apple-system,BlinkMacSystemFont,"Segoe UI",sans-serif }
  .legend,.date { fill:#8b949e; font:12px -apple-system,BlinkMacSystemFont,"Segoe UI",sans-serif }
  .value { font:600 11px -apple-system,BlinkMacSystemFont,"Segoe UI",sans-serif }
  .add { fill:#3fb950 } .del { fill:#f85149 }
</style>
<rect x="0.5" y="0.5" width="739" height="319" rx="10" fill="#0d1117" stroke="#30363d"/>
<text x="24" y="34" class="title">7-Day Code Activity</text>
<circle cx="526" cy="29" r="5" fill="#3fb950"/><text x="538" y="33" class="legend">Additions</text>
<circle cx="624" cy="29" r="5" fill="#f85149"/><text x="636" y="33" class="legend">Deletions</text>
<line x1="36" y1="160" x2="704" y2="160" stroke="#30363d"/>
<rect x="61" y="160" width="28" height="0" rx="4" fill="#3fb950"/>
<rect x="61" y="160" width="28" height="0" rx="4" fill="#f85149"/>
<text x="75" y="153" text-anchor="middle" class="value add">+0</text>
<text x="75" y="176" text-anchor="middle" class="value del">-0</text>
<text x="75" y="286" text-anchor="middle" class="date">7/16</text>
<rect x="157" y="160" width="28" height="0" rx="4" fill="#3fb950"/>
<rect x="157" y="160" width="28" height="0" rx="4" fill="#f85149"/>
<text x="171" y="153" text-anchor="middle" class="value add">+0</text>
<text x="171" y="176" text-anchor="middle" class="value del">-0</text>
<text x="171" y="286" text-anchor="middle" class="date">7/17</text>
<rect x="253" y="160" width="28" height="0" rx="4" fill="#3fb950"/>
<rect x="253" y="160" width="28" height="0" rx="4" fill="#f85149"/>
<text x="267" y="153" text-anchor="middle" class="value add">+0</text>
<text x="267" y="176" text-anchor="middle" class="value del">-0</text>
<text x="267" y="286" text-anchor="middle" class="date">7/18</text>
<rect x="349" y="160" width="28" height="0" rx="4" fill="#3fb950"/>
<rect x="349" y="160" width="28" height="0" rx="4" fill="#f85149"/>
<text x="363" y="153" text-anchor="middle" class="value add">+0</text>
<text x="363" y="176" text-anchor="middle" class="value del">-0</text>
<text x="363" y="286" text-anchor="middle" class="date">7/19</text>
<rect x="445" y="160" width="28" height="0" rx="4" fill="#3fb950"/>
<rect x="445" y="160" width="28" height="0" rx="4" fill="#f85149"/>
<text x="459" y="153" text-anchor="middle" class="value add">+0</text>
<text x="459" y="176" text-anchor="middle" class="value del">-0</text>
<text x="459" y="286" text-anchor="middle" class="date">7/20</text>
<rect x="541" y="160" width="28" height="0" rx="4" fill="#3fb950"/>
<rect x="541" y="160" width="28" height="0" rx="4" fill="#f85149"/>
<text x="555" y="153" text-anchor="middle" class="value add">+0</text>
<text x="555" y="176" text-anchor="middle" class="value del">-0</text>
<text x="555" y="286" text-anchor="middle" class="date">7/21</text>
<rect x="637" y="74" width="28" height="86" rx="4" fill="#3fb950"/>
<rect x="637" y="160" width="28" height="2" rx="4" fill="#f85149"/>
<text x="651" y="67" text-anchor="middle" class="value add">+273</text>
<text x="651" y="178" text-anchor="middle" class="value del">-7</text>
<text x="651" y="286" text-anchor="middle" class="date">7/22</text>
</svg>
